<?xml version="1.0" encoding="UTF-8" standalone="no"?>
<svg
   xmlns:dc="http://purl.org/dc/elements/1.1/"
   xmlns:cc="http://creativecommons.org/ns#"
   xmlns:rdf="http://www.w3.org/1999/02/22-rdf-syntax-ns#"
   xmlns:svg="http://www.w3.org/2000/svg"
   xmlns="http://www.w3.org/2000/svg"
   xmlns:sodipodi="http://sodipodi.sourceforge.net/DTD/sodipodi-0.dtd"
   xmlns:inkscape="http://www.inkscape.org/namespaces/inkscape"
   viewBox="0 0 171.3 60.8"
   enable-background="new 0 0 171.3 60.8"
   version="1.1"
   id="svg49"
   sodipodi:docname="clouds - копия.svg"
   inkscape:version="0.92.1 r15371">
  <metadata
     id="metadata55">
    <rdf:RDF>
      <cc:Work
         rdf:about="">
        <dc:format>image/svg+xml</dc:format>
        <dc:type
           rdf:resource="http://purl.org/dc/dcmitype/StillImage" />
      </cc:Work>
    </rdf:RDF>
  </metadata>
  <defs
     id="defs53" />
  <sodipodi:namedview
     pagecolor="#ffffff"
     bordercolor="#666666"
     borderopacity="1"
     objecttolerance="10"
     gridtolerance="10"
     guidetolerance="10"
     inkscape:pageopacity="0"
     inkscape:pageshadow="2"
     inkscape:window-width="1920"
     inkscape:window-height="1016"
     id="namedview51"
     showgrid="false"
     inkscape:zoom="9.4115787"
     inkscape:cx="37.410521"
     inkscape:cy="13.075947"
     inkscape:window-x="-8"
     inkscape:window-y="-8"
     inkscape:window-maximized="1"
     inkscape:current-layer="svg49" />
  <linearGradient
     id="a"
     gradientUnits="userSpaceOnUse"
     x1="28.81"
     y1="27.002"
     x2="28.81"
     y2="60.814">
    <stop
       offset="0"
       stop-color="#00A79C"
       id="stop2" />
    <stop
       offset=".172"
       stop-color="#3AAFA6"
       id="stop4" />
    <stop
       offset=".517"
       stop-color="#65BEB6"
       id="stop6" />
    <stop
       offset=".805"
       stop-color="#7AC9C2"
       id="stop8" />
    <stop
       offset="1"
       stop-color="#80CEC7"
       id="stop10" />
  </linearGradient>
  <path
     fill="url(#a)"
     d="M.8 32.9l26.5-5.9 29.6 29.7-28.2 4.1z"
     id="path13"
     style="fill:none" />
  <linearGradient
     id="b"
     gradientUnits="userSpaceOnUse"
     x1="139.311"
     y1="15.657"
     x2="139.311"
     y2="52.782">
    <stop
       offset="0"
       stop-color="#00A79C"
       id="stop15" />
    <stop
       offset=".108"
       stop-color="#36AEA4"
       id="stop17" />
    <stop
       offset=".326"
       stop-color="#5CBAB2"
       id="stop19" />
    <stop
       offset=".546"
       stop-color="#71C4BD"
       id="stop21" />
    <stop
       offset=".769"
       stop-color="#7DCBC4"
       id="stop23" />
    <stop
       offset="1"
       stop-color="#80CEC7"
       id="stop25" />
  </linearGradient>
  <path
     fill="url(#b)"
     d="M107.3 25.8l33.4-10.1 30.6 31.8-37 5.3z"
     id="path28"
     style="fill:none" />
  <linearGradient
     id="c"
     gradientUnits="userSpaceOnUse"
     x1="54.409"
     y1="6.464"
     x2="54.409"
     y2="49.068">
    <stop
       offset="0"
       stop-color="#00A79C"
       id="stop30" />
    <stop
       offset=".153"
       stop-color="#47B2AA"
       id="stop32" />
    <stop
       offset=".326"
       stop-color="#63BDB6"
       id="stop34" />
    <stop
       offset=".513"
       stop-color="#74C6BF"
       id="stop36" />
    <stop
       offset=".723"
       stop-color="#7ECCC5"
       id="stop38" />
    <stop
       offset="1"
       stop-color="#80CEC7"
       id="stop40" />
  </linearGradient>
  <path
     fill="url(#c)"
     d="M25 10.9l20-4.4 38.8 39.4-21.2 3.2z"
     id="path43"
     style="fill:none" />
  <path
     fill="#fff"
     d="M137.1 14.4h-.1c.1-.4.1-.8.1-1.2 0-4.4-3.6-8-8-8-3.6 0-6.7 2.4-7.7 5.7-1-1.2-2.5-1.9-4.2-1.9-3 0-5.5 2.5-5.5 5.5h-1.1c-3.3 0-6 2.7-6 6s2.7 6 6 6h26.4c3.3 0 6-2.7 6-6s-2.6-6.1-5.9-6.1zm-113.5 10.9c0-2.4-2-4.4-4.4-4.4-1.1 0-2.2.4-2.9 1.1-.9-2.4-3.2-4.1-6-4.1-3.5.1-6.3 2.9-6.3 6.4 0 .4 0 .7.1 1-2.3.4-4.1 2.4-4.1 4.8 0 2.7 2.2 4.8 4.8 4.8h18.8c2.7 0 4.8-2.2 4.8-4.8 0-2.6-2.1-4.8-4.8-4.8z"
     id="path45" />
  <path
     fill="#DFF2F6"
     d="M42.5 5.5h-1.1c-.3-3.1-2.9-5.5-6-5.5-3.2 0-5.7 2.4-6 5.5h-1.1c-2 0-3.6 1.6-3.6 3.6s1.6 3.6 3.6 3.6h14.2c2 0 3.6-1.6 3.6-3.6s-1.6-3.6-3.6-3.6z"
     id="path47" />
</svg>
